:SAMPLES-PER-SECOND 30
:FULLY-SPECIFIED
:DEGREES
455
root  -4.91402 40.6097 73.4126 -0.456531 -3.74628 0.588491
RightUpLeg  -0.244559 -1.64322 0.0187177
RightLeg  1.58241 -3.46193 1.18672
RightFoot  -1.7848 0.107874 -1.14831
RightToes  5.82077e-011 -3.18055e-015 -2.98177e-016
Spine  3.78235 1.45324 -0.106651
Spine1  -0.100921 1.3402 1.35826
HEad  -15.3447 5.40521 -0.644244
LeftShoulder1  -3.88251e-019 9.70628e-020 -3.87848e-018
LeftArm  -16.9227 49.9649 -68.1418
LeftForeArm  -12.0619 -23.6275 1.38557
LeftHand  -0.556902 -2.69977 8.58404
RightShoulder  7.80334 10.7669 36.3835
RightArm  6.9807 -37.9413 8.84354
RightForeArm  25.3953 8.40427 -4.12962
RightHand  -0.945457 4.13411 -11.4552
LeftUpLeg  -2.07815 -5.14167 -5.65933
LeftLeg  5.19687 9.61753 4.49059
LeftFoot  -2.348 -0.346827 3.62034
LeftToes  9.37148e-011 4.50685e-012 -4.11107e-011
456
root  -5.03865 40.6162 73.5175 -0.179571 -3.27154 0.616015
RightUpLeg  -0.0256961 -1.51743 0.220304
RightLeg  1.1108 -4.06556 1.28018
RightFoot  -1.77108 0.129153 -1.34795
RightToes  5.82077e-011 -3.18055e-015 -2.98177e-016
Spine  3.08588 1.09082 -0.334284
Spine1  -0.0947122 0.859791 2.05735
HEad  -15.2504 5.77701 -0.579469
LeftShoulder1  -3.88251e-019 9.70628e-020 -3.87848e-018
LeftArm  -20.3108 50.6052 -67.8883
LeftForeArm  -8.79789 -20.6867 -0.639673
LeftHand  -0.455967 -2.20449 7.53586
RightShoulder  7.79611 10.7559 36.372
RightArm  7.78645 -38.8993 8.0932
RightForeArm  22.3507 10.3083 -4.36281
RightHand  -0.926087 4.04764 -11.3223
LeftUpLeg  -2.16173 -5.18251 -5.50892
LeftLeg  4.97791 9.14915 4.41704
LeftFoot  -2.23987 -0.352979 3.64869
LeftToes  9.37148e-011 4.50685e-012 -4.11107e-011
457
root  -5.14634 40.6103 73.5879 0.0315953 -3.1331 0.614654
RightUpLeg  -0.0961543 -1.40925 0.410075
RightLeg  1.08311 -4.32073 1.27177
RightFoot  -1.86732 0.136617 -1.39869
RightToes  5.82077e-011 -3.18055e-015 -2.98177e-016
Spine  2.61812 0.887562 -0.375821
Spine1  -0.0259889 0.579705 2.50424
HEad  -15.2816 6.09798 -0.592024
LeftShoulder1  -3.88251e-019 9.70628e-020 -3.87848e-018
LeftArm  -22.9346 51.0978 -67.6827
LeftForeArm  -4.75077 -17.3841 -2.03999
LeftHand  -0.395228 -2.38561 6.40058
RightShoulder  7.7736 10.7404 36.2949
RightArm  9.12116 -39.8789 7.5852
RightForeArm  19.4204 12.5674 -4.81694
RightHand  -0.950442 4.30988 -11.3131
LeftUpLeg  -2.38889 -5.17901 -5.34486
LeftLeg  5.14031 8.97415 4.49453
LeftFoot  -2.23538 -0.349833 3.60004
LeftToes  9.37148e-011 4.50685e-012 -4.11107e-011
458
root  -5.24231 40.6111 73.605 0.155416 -3.50007 0.575836
RightUpLeg  -0.314721 -1.2388 0.624335
RightLeg  1.15693 -4.12263 1.2516
RightFoot  -1.7601 0.14716 -1.47732
RightToes  5.82077e-011 -3.18055e-015 -2.98177e-016
Spine  2.17287 0.942783 -0.356983
Spine1  0.543928 0.566197 2.80095
HEad  -15.8047 6.33362 -0.706297
LeftShoulder1  -3.88251e-019 9.70628e-020 -3.87848e-018
LeftArm  -23.9773 51.1933 -67.6902
LeftForeArm  -2.18512 -14.1794 -2.67327
LeftHand  -0.338947 -2.40733 5.49071
RightShoulder  7.76039 10.7278 36.2573
RightArm  11.0593 -40.4531 7.59343
RightForeArm  16.706 14.6852 -5.64953
RightHand  -0.982164 4.45836 -11.5157
LeftUpLeg  -2.52096 -5.04297 -5.14552
LeftLeg  5.23715 9.19557 4.56189
LeftFoot  -2.17561 -0.328815 3.36759
LeftToes  9.37148e-011 4.50685e-012 -4.11107e-011
459
root  -5.32576 40.619 73.5963 0.269327 -4.15404 0.541837
RightUpLeg  -0.603533 -1.00505 0.852718
RightLeg  1.25219 -3.72131 1.18621
RightFoot  -1.55846 0.176198 -1.74553
RightToes  5.82077e-011 -3.18055e-015 -2.98177e-016
Spine  1.70015 1.09603 -0.447
Spine1  1.41152 0.629829 3.14157
HEad  -16.6287 6.62078 -0.886632
LeftShoulder1  -3.88251e-019 9.70628e-020 -3.87848e-018
LeftArm  -24.4693 51.2779 -67.874
LeftForeArm  -1.91893 -11.4782 -2.9164
LeftHand  -0.266003 -1.83431 4.673
RightShoulder  7.76604 10.7218 36.2987
RightArm  12.8185 -40.5148 8.1046
RightForeArm  14.7101 16.2298 -6.59881
RightHand  -1.03994 4.6211 -11.9907
LeftUpLeg  -2.54592 -4.88467 -4.97824
LeftLeg  5.13017 9.68134 4.58884
LeftFoot  -2.02746 -0.305931 3.10319
LeftToes  9.37148e-011 4.50685e-012 -4.11107e-011
460
root  -5.4025 40.6313 73.6158 0.370826 -4.66012 0.550688
RightUpLeg  -0.673969 -0.797045 1.02831
RightLeg  1.11065 -3.46116 1.17508
RightFoot  -1.42725 0.209964 -2.06409
RightToes  5.82077e-011 -3.18055e-015 -2.98177e-016
Spine  1.32505 1.07961 -0.756631
Spine1  2.11409 0.498587 3.61357
HEad  -17.3138 7.11138 -1.18139
LeftShoulder1  -3.88251e-019 9.70628e-020 -3.87848e-018
LeftArm  -25.5549 51.9096 -68.1059
LeftForeArm  -3.30808 -9.46355 -2.88766
LeftHand  -0.203173 -1.03486 4.02889
RightShoulder  7.79674 10.7248 36.4446
RightArm  13.7662 -40.2057 8.87449
RightForeArm  13.6741 17.0576 -7.23106
RightHand  -1.11545 4.94387 -12.4632
LeftUpLeg  -2.39885 -4.70841 -4.85402
LeftLeg  4.78172 9.99643 4.46115
LeftFoot  -1.82753 -0.301556 3.00758
LeftToes  9.37148e-011 4.50685e-012 -4.11107e-011
